<svg width="17" height="16" viewBox="0 0 17 16" fill="none" xmlns="http://www.w3.org/2000/svg">
<path d="M2.68347 14.6667C2.68347 12.0867 5.25014 9.99999 8.41014 9.99999C9.05014 9.99999 9.67014 10.0867 10.2501 10.2467M8.41014 7.99999C9.29419 7.99999 10.142 7.64881 10.7672 7.02368C11.3923 6.39856 11.7435 5.55072 11.7435 4.66666C11.7435 3.78261 11.3923 2.93476 10.7672 2.30964C10.142 1.68452 9.29419 1.33333 8.41014 1.33333C7.52608 1.33333 6.67824 1.68452 6.05312 2.30964C5.42799 2.93476 5.07681 3.78261 5.07681 4.66666C5.07681 5.55072 5.42799 6.39856 6.05312 7.02368C6.67824 7.64881 7.52608 7.99999 8.41014 7.99999Z" stroke="#FFFFFE" stroke-width="0.9" stroke-linecap="round" stroke-linejoin="round"/>
<path d="M13.4035 11.9867H11.4169M12.4102 11.0133V13.0067M15.0769 12C15.0769 12.2133 15.0502 12.42 14.9969 12.62C14.9369 12.8867 14.8302 13.1467 14.6902 13.3733C14.4552 13.7683 14.1213 14.0953 13.7216 14.3221C13.3218 14.5489 12.8698 14.6676 12.4102 14.6667C11.7538 14.6686 11.1208 14.4235 10.6369 13.98C10.4369 13.8067 10.2635 13.6 10.1302 13.3733C9.87643 12.9603 9.74255 12.4848 9.74354 12C9.7431 11.6497 9.81177 11.3027 9.94563 10.979C10.0795 10.6553 10.2759 10.3611 10.5236 10.1134C10.7713 9.86569 11.0655 9.66928 11.3892 9.53542C11.7129 9.40157 12.0599 9.33289 12.4102 9.33333C13.1969 9.33333 13.9102 9.67333 14.3902 10.22C14.8169 10.6933 15.0769 11.32 15.0769 12Z" stroke="#FFFFFE" stroke-width="0.9" stroke-miterlimit="10" stroke-linecap="round" stroke-linejoin="round"/>
</svg>
