<svg width="16" height="16" viewBox="0 0 16 16" fill="none" xmlns="http://www.w3.org/2000/svg">
<g clip-path="url(#clip0_210_15970)">
<path d="M7.33337 1.33333H6.00004C2.66671 1.33333 1.33337 2.66667 1.33337 6V10C1.33337 13.3333 2.66671 14.6667 6.00004 14.6667H10C13.3334 14.6667 14.6667 13.3333 14.6667 10V8.66667" stroke="#536891" stroke-width="0.9" stroke-linecap="round" stroke-linejoin="round"/>
<path d="M10.6934 2.01333L5.44004 7.26667C5.24004 7.46667 5.04004 7.86 5.00004 8.14667L4.71337 10.1533C4.60671 10.88 5.12004 11.3867 5.84671 11.2867L7.85337 11C8.13337 10.96 8.52671 10.76 8.73337 10.56L13.9867 5.30667C14.8934 4.4 15.32 3.34667 13.9867 2.01333C12.6534 0.680001 11.6 1.10667 10.6934 2.01333Z" stroke="#536891" stroke-width="0.9" stroke-miterlimit="10" stroke-linecap="round" stroke-linejoin="round"/>
<path d="M9.93994 2.76667C10.161 3.55164 10.5799 4.26671 11.1566 4.84336C11.7332 5.42002 12.4483 5.83894 13.2333 6.06" stroke="#536891" stroke-width="0.9" stroke-miterlimit="10" stroke-linecap="round" stroke-linejoin="round"/>
</g>
<defs>
<clipPath id="clip0_210_15970">
<rect width="16" height="16" fill="white"/>
</clipPath>
</defs>
</svg>
