<svg width="25" height="24" viewBox="0 0 25 24" fill="none" xmlns="http://www.w3.org/2000/svg">
<path d="M14.7302 19.07C14.7302 19.68 14.3302 20.48 13.8202 20.79L12.4102 21.7C11.1002 22.51 9.28021 21.6 9.28021 19.98V14.63C9.28021 13.92 8.88022 13.01 8.47022 12.51L4.63021 8.46999C4.12021 7.95999 3.72021 7.05999 3.72021 6.44999V4.12999C3.72021 2.91999 4.63021 2.00999 5.74021 2.00999H19.0802C20.1902 2.00999 21.1002 2.91999 21.1002 4.02999V6.24999C21.1002 7.05999 20.5902 8.06999 20.0902 8.56999" stroke="#0057A2" stroke-width="1.5" stroke-miterlimit="10" stroke-linecap="round" stroke-linejoin="round"/>
<path d="M20.2802 17.12L19.2802 16.12M16.4802 16.52C17.3288 16.52 18.1428 16.1829 18.7429 15.5827C19.343 14.9826 19.6802 14.1687 19.6802 13.32C19.6802 12.4713 19.343 11.6574 18.7429 11.0573C18.1428 10.4571 17.3288 10.12 16.4802 10.12C15.6315 10.12 14.8175 10.4571 14.2174 11.0573C13.6173 11.6574 13.2802 12.4713 13.2802 13.32C13.2802 14.1687 13.6173 14.9826 14.2174 15.5827C14.8175 16.1829 15.6315 16.52 16.4802 16.52Z" stroke="#0057A2" stroke-width="1.5" stroke-linecap="round" stroke-linejoin="round"/>
</svg>
