<svg width="98" height="24" viewBox="0 0 98 24" fill="none" xmlns="http://www.w3.org/2000/svg">
<g clip-path="url(#clip0_800_2631)">
<path d="M21.6115 0C20.9789 0 20.4354 0.231424 19.9821 0.694272C19.5286 1.15712 19.3018 1.70605 19.3018 2.3407C19.3018 2.99722 19.5286 3.55708 19.9821 4.01958C20.4354 4.48243 20.9789 4.71385 21.6115 4.71385C22.2442 4.71385 22.7901 4.48243 23.2489 4.01958C23.7076 3.55708 23.9368 2.99722 23.9368 2.3407C23.9368 1.70569 23.7073 1.15712 23.2489 0.694272C22.7901 0.231424 22.2445 0 21.6115 0Z" fill="white"/>
<path d="M23.383 7.53577H19.792V23.6938H23.383V7.53577Z" fill="white"/>
<path d="M43.7373 7.22845C41.7958 7.22845 40.0475 8.07089 38.8222 9.41605C37.597 8.07089 35.8487 7.22845 33.9071 7.22845C30.201 7.22845 27.1963 10.2941 27.1963 14.0763V23.6938H30.787V13.9154C30.787 12.1571 32.1837 10.7319 33.9067 10.7319C35.6298 10.7319 37.0265 12.1571 37.0265 13.9154V23.6941H40.6175V13.9154C40.6175 12.1571 42.0143 10.7319 43.7373 10.7319C45.4604 10.7319 46.8571 12.1571 46.8571 13.9154V23.6941H50.4481V14.0763C50.4478 10.2945 47.4435 7.22845 43.7373 7.22845Z" fill="white"/>
<path d="M72.6426 2.37036L75.3938 23.6938H79.0156L76.2644 2.37036H72.6426Z" fill="white"/>
<path d="M62.446 7.2285C60.7299 7.2285 59.1368 7.76614 57.8185 8.68407V2.37036H54.2275V15.6148C54.2275 20.2461 57.9071 24.0007 62.4457 24.0007C66.9843 24.0007 70.6638 20.2461 70.6638 15.6148C70.6638 10.9835 66.985 7.2285 62.446 7.2285ZM62.446 20.4973C59.8905 20.4973 57.8185 18.3111 57.8185 15.6144C57.8185 12.9178 59.8905 10.7316 62.446 10.7316C65.0016 10.7316 67.0735 12.9178 67.0735 15.6144C67.0735 18.3111 65.0016 20.4973 62.446 20.4973Z" fill="white"/>
<path d="M97.9998 15.6144C97.9998 10.9831 94.3203 7.22845 89.7816 7.22845C85.243 7.22845 81.5635 10.9831 81.5635 15.6144C81.5635 20.2457 85.243 24.0003 89.7816 24.0003C91.9203 24.0003 93.8674 23.1664 95.3294 21.8004L92.8492 19.2696C92.0326 20.0333 90.9585 20.4972 89.7816 20.4972C87.7028 20.4972 85.9441 19.0505 85.3605 17.0594H97.876C97.9555 16.5898 97.9998 16.1076 97.9998 15.6144ZM85.3602 14.1698C85.9441 12.1787 87.7025 10.7319 89.7813 10.7319C91.8601 10.7319 93.6188 12.1787 94.2024 14.1698H85.3602Z" fill="white"/>
<path d="M0 7.53577V23.6938H3.59101V11.0385H10.7253L12.3582 23.6938H15.9799L13.8952 7.53577H0Z" fill="white"/>
</g>
<defs>
<clipPath id="clip0_800_2631">
<rect width="98" height="24" fill="white"/>
</clipPath>
</defs>
</svg>
