<svg width="32" height="40" viewBox="0 0 32 40" fill="none" xmlns="http://www.w3.org/2000/svg">
<g id="Group 171">
<g id="g130">
<path id="path132" d="M16.0096 22.2625L16.0002 22.2629V39.9996L16.0096 39.9941C31.9832 31.0076 31.9999 18.9791 31.9999 18.9791V15.6221C28.0905 19.6893 22.3723 22.2601 16.0096 22.2625Z" fill="#0057A2"/>
</g>
<path id="path134" d="M32 0.0331631H16.0003V4.57202H32V0.0331631Z" fill="#EE7000"/>
<g id="g136">
<path id="path138" d="M16.0302 18.6793C21.2103 18.6793 28.4909 16.0606 31.9999 13.6111V11.062H23.619L23.6226 8.0807H16.0002V18.6785C16.01 18.6785 16.0203 18.6793 16.0302 18.6793Z" fill="#E3000A"/>
</g>
<g id="g144">
<path id="path146" d="M0.000214548 15.6223V18.9788C0.000214548 18.9788 -0.0389529 31.0121 16.0003 39.9998V22.2631C9.63407 22.2631 3.91152 19.6914 0.000214548 15.6223Z" fill="#002F60"/>
</g>
<g id="g148">
<path id="path150" d="M16.0001 0.033227H15.9756H7.98799H0V4.57208H16.0001V0.033227Z" fill="#BF5C00"/>
</g>
<g id="g156">
<path id="path158" d="M16.0001 8.0809H8.37928L8.37888 11.0622H0V13.6129C3.60904 16.1418 10.8592 18.6688 16.0001 18.6783V8.0809Z" fill="#A50600"/>
</g>
</g>
</svg>
