<svg width="14" height="14" viewBox="0 0 14 14" fill="none" xmlns="http://www.w3.org/2000/svg">
<g clip-path="url(#clip0_280_10173)">
<path d="M12.8333 12.8333L11.6666 11.6666M6.70829 12.25C7.43603 12.25 8.15665 12.1066 8.829 11.8281C9.50134 11.5496 10.1123 11.1414 10.6268 10.6268C11.1414 10.1123 11.5496 9.50134 11.8281 8.829C12.1066 8.15665 12.25 7.43603 12.25 6.70829C12.25 5.98055 12.1066 5.25993 11.8281 4.58759C11.5496 3.91524 11.1414 3.30433 10.6268 2.78974C10.1123 2.27515 9.50134 1.86695 8.829 1.58846C8.15665 1.30997 7.43603 1.16663 6.70829 1.16663C5.23855 1.16663 3.82901 1.75048 2.78974 2.78974C1.75048 3.82901 1.16663 5.23855 1.16663 6.70829C1.16663 8.17803 1.75048 9.58758 2.78974 10.6268C3.82901 11.6661 5.23855 12.25 6.70829 12.25V12.25Z" stroke="#2B3645" stroke-width="0.9" stroke-linecap="round" stroke-linejoin="round"/>
</g>
<defs>
<clipPath id="clip0_280_10173">
<rect width="14" height="14" fill="white"/>
</clipPath>
</defs>
</svg>
