<svg width="139" height="16" viewBox="0 0 139 16" fill="none" xmlns="http://www.w3.org/2000/svg">
<path d="M1.39026 15.08C1.85026 15.08 2.23026 14.7 2.23026 14.22C2.23026 13.74 1.85026 13.38 1.39026 13.38C0.930259 13.38 0.550259 13.74 0.550259 14.22C0.550259 14.7 0.930259 15.08 1.39026 15.08ZM9.70948 15.1C13.1695 15.1 14.7495 13.38 14.7495 11.4C14.7495 6.32 6.00948 8.8 6.00948 4.6C6.00948 3.06 7.22948 1.8 9.94948 1.8C11.2095 1.8 12.6295 2.18 13.7895 2.98L14.1695 2.16C13.0895 1.38 11.4895 0.899999 9.94948 0.899999C6.50948 0.899999 4.98948 2.64 4.98948 4.62C4.98948 9.78 13.7295 7.26 13.7295 11.46C13.7295 12.98 12.4895 14.2 9.68948 14.2C7.80948 14.2 6.02948 13.44 5.06948 12.44L4.60948 13.2C5.62948 14.32 7.62948 15.1 9.70948 15.1ZM32.457 15L32.437 0.999999H31.597L25.337 11.82L19.077 0.999999H18.217V15H19.217V3.06L25.077 13.14H25.577L31.437 3.02L31.457 15H32.457ZM47.7981 15H48.8981L42.4581 0.999999H41.4381L34.9981 15H36.0981L37.8781 11.06H45.9981L47.7981 15ZM38.2781 10.2L41.9381 2.12L45.6181 10.2H38.2781ZM62.3196 15L58.8196 10.1C60.8996 9.48 62.0996 7.94 62.0996 5.72C62.0996 2.76 59.9796 0.999999 56.4596 0.999999H51.4396V15H52.4596V10.42H56.4596C56.9396 10.42 57.3796 10.38 57.8196 10.32L61.1596 15H62.3196ZM52.4596 9.52V1.92H56.4596C59.4596 1.92 61.0596 3.3 61.0596 5.72C61.0596 8.12 59.4596 9.52 56.4596 9.52H52.4596ZM68.3189 15H69.3389V1.92H74.3789V0.999999H63.2789V1.92H68.3189V15ZM76.9084 15H85.9884V14.08H77.9284V0.999999H76.9084V15ZM99.0871 15H100.187L93.7471 0.999999H92.7271L86.2871 15H87.3871L89.1671 11.06H97.2871L99.0871 15ZM89.5671 10.2L93.2271 2.12L96.9071 10.2H89.5671ZM111.868 0.999999H110.808L105.748 9.24L100.688 0.999999H99.5684L105.208 10.18V15H106.228V10.18L111.868 0.999999ZM115.096 14.08V8.34H122.556V7.44H115.096V1.92H123.436V0.999999H114.076V15H123.736V14.08H115.096ZM138.335 15L134.835 10.1C136.915 9.48 138.115 7.94 138.115 5.72C138.115 2.76 135.995 0.999999 132.475 0.999999H127.455V15H128.475V10.42H132.475C132.955 10.42 133.395 10.38 133.835 10.32L137.175 15H138.335ZM128.475 9.52V1.92H132.475C135.475 1.92 137.075 3.3 137.075 5.72C137.075 8.12 135.475 9.52 132.475 9.52H128.475Z" fill="black"/>
</svg>
