<svg width="400" height="39" viewBox="0 0 400 39" fill="none" xmlns="http://www.w3.org/2000/svg">
<path d="M35.5235 0C34.4835 0 33.5902 0.372871 32.8452 1.11861C32.0996 1.86435 31.7268 2.74878 31.7268 3.77134C31.7268 4.82913 32.0996 5.73118 32.8452 6.47635C33.5902 7.22209 34.4835 7.59497 35.5235 7.59497C36.5634 7.59497 37.4607 7.22209 38.2148 6.47635C38.9689 5.73118 39.3457 4.82913 39.3457 3.77134C39.3457 2.74822 38.9683 1.86435 38.2148 1.11861C37.4607 0.372871 36.564 0 35.5235 0Z" fill="#0C1B2A"/>
<path d="M38.436 12.1416H32.5333V38.1755H38.436V12.1416Z" fill="#0C1B2A"/>
<path d="M71.8921 11.6465C68.7006 11.6465 65.8268 13.0039 63.8129 15.1712C61.7989 13.0039 58.9251 11.6465 55.7337 11.6465C49.6418 11.6465 44.7029 16.5859 44.7029 22.6797V38.1755H50.605V22.4206C50.605 19.5876 52.9008 17.2913 55.7331 17.2913C58.5654 17.2913 60.8612 19.5876 60.8612 22.4206V38.176H66.7639V22.4206C66.7639 19.5876 69.0598 17.2913 71.8921 17.2913C74.7243 17.2913 77.0202 19.5876 77.0202 22.4206V38.176H82.9229V22.6797C82.9223 16.5865 77.984 11.6465 71.8921 11.6465Z" fill="#0C1B2A"/>
<path d="M119.405 3.81911L123.927 38.1755H129.881L125.358 3.81911H119.405Z" fill="#0C1B2A"/>
<path d="M102.645 11.6465C99.8245 11.6465 97.2059 12.5128 95.039 13.9918V3.81911H89.1364V25.1586C89.1364 32.6205 95.1845 38.67 102.645 38.67C110.105 38.67 116.153 32.6205 116.153 25.1586C116.153 17.6966 110.106 11.6465 102.645 11.6465ZM102.645 33.0252C98.4447 33.0252 95.039 29.5028 95.039 25.158C95.039 20.8131 98.4447 17.2908 102.645 17.2908C106.846 17.2908 110.252 20.8131 110.252 25.158C110.252 29.5028 106.846 33.0252 102.645 33.0252Z" fill="#0C1B2A"/>
<path d="M161.086 25.158C161.086 17.696 155.038 11.6465 147.578 11.6465C140.117 11.6465 134.069 17.696 134.069 25.158C134.069 32.6199 140.117 38.6694 147.578 38.6694C151.093 38.6694 154.294 37.3257 156.697 35.1249L152.62 31.0472C151.278 32.2778 149.512 33.0252 147.578 33.0252C144.161 33.0252 141.27 30.6942 140.311 27.4861H160.883C161.014 26.7296 161.086 25.9526 161.086 25.158ZM140.31 22.8304C141.27 19.6223 144.16 17.2913 147.577 17.2913C150.994 17.2913 153.885 19.6223 154.844 22.8304H140.31Z" fill="#0C1B2A"/>
<path d="M0 12.1416V38.1755H5.90268V17.7853H17.6296L20.3136 38.1755H26.2669L22.8402 12.1416H0Z" fill="#0C1B2A"/>
<path d="M166.663 32.1618C167.409 31.4161 168.302 31.0426 169.343 31.0426C170.384 31.0426 171.282 31.4161 172.036 32.1618C172.791 32.9081 173.168 33.7925 173.168 34.8162C173.168 35.8746 172.791 36.7766 172.036 37.5224C171.281 38.2687 170.384 38.6416 169.343 38.6416C168.303 38.6416 167.409 38.2687 166.663 37.5224C165.917 36.7766 165.545 35.8746 165.545 34.8162C165.545 33.7925 165.917 32.9081 166.663 32.1618Z" fill="#0C1B2A"/>
<path d="M186.588 11.909C188.158 11.909 189.645 12.1967 191.047 12.7721C192.45 13.3356 193.505 14.0668 194.212 14.966L193.151 16.1708C192.516 15.3436 191.599 14.6842 190.4 14.1927C189.213 13.7012 187.918 13.4555 186.516 13.4555C184.706 13.4555 183.207 13.917 182.02 14.8401C180.845 15.7632 180.258 16.932 180.258 18.3466C180.258 19.1978 180.426 19.947 180.761 20.5944C181.109 21.2297 181.571 21.7512 182.146 22.1588C182.733 22.5544 183.405 22.9021 184.16 23.2018C184.915 23.4895 185.707 23.7532 186.534 23.993C187.373 24.2208 188.206 24.4545 189.033 24.6943C189.86 24.9341 190.652 25.2278 191.407 25.5754C192.162 25.9111 192.827 26.3127 193.403 26.7802C193.99 27.2478 194.452 27.8592 194.788 28.6144C195.135 29.3577 195.309 30.2208 195.309 31.2038C195.309 33.2658 194.512 34.9861 192.917 36.3647C191.335 37.7314 189.297 38.4147 186.803 38.4147C183.519 38.4147 180.504 37.3118 177.758 35.106L178.747 33.8113C181.241 35.8492 183.926 36.8682 186.803 36.8682C188.793 36.8682 190.424 36.3408 191.695 35.2858C192.977 34.2189 193.619 32.8582 193.619 31.2038C193.619 30.3887 193.445 29.6814 193.097 29.082C192.762 28.4706 192.3 27.979 191.713 27.6074C191.137 27.2358 190.472 26.9121 189.717 26.6364C188.973 26.3487 188.182 26.0969 187.343 25.8811C186.516 25.6534 185.689 25.4196 184.861 25.1798C184.034 24.9401 183.243 24.6404 182.488 24.2807C181.744 23.9211 181.079 23.5015 180.492 23.022C179.916 22.5305 179.455 21.8951 179.107 21.1159C178.771 20.3366 178.604 19.4375 178.604 18.4185C178.604 16.5244 179.359 14.966 180.869 13.7432C182.38 12.5204 184.286 11.909 186.588 11.909Z" fill="#0C1B2A"/>
<path d="M200.344 38.0551V12.2686H202.196L212.95 35.6634L223.739 12.2686H225.393V38.0551H223.739V15.7392L213.489 38.0551H212.212L201.962 15.7392V38.0551H200.344Z" fill="#0C1B2A"/>
<path d="M249.939 38.0551L247.098 30.9161H233.917L231.04 38.0551H229.313L239.653 12.2686H241.343L251.737 38.0551H249.939ZM234.546 29.3697H246.468L240.498 14.4445L234.546 29.3697Z" fill="#0C1B2A"/>
<path d="M273.082 38.0551H271.086L263.246 26.4566H257.24V38.0551H255.621V12.2686H264.684C266.818 12.2686 268.586 12.94 269.989 14.2826C271.392 15.6133 272.093 17.2916 272.093 19.3176C272.093 21.3556 271.439 23.034 270.133 24.3526C268.838 25.6593 267.16 26.3607 265.098 26.4566L273.082 38.0551ZM257.24 13.8151V24.9101H264.684C266.363 24.9101 267.747 24.3886 268.838 23.3456C269.929 22.2907 270.474 20.948 270.474 19.3176C270.474 17.7232 269.929 16.4105 268.838 15.3795C267.747 14.3366 266.363 13.8151 264.684 13.8151H257.24Z" fill="#0C1B2A"/>
<path d="M293.186 12.2686V13.8151H284.339V38.0551H282.72V13.8151H273.891V12.2686H293.186Z" fill="#0C1B2A"/>
<path d="M297.699 12.2686H299.318V36.5086H312.912V38.0551H297.699V12.2686Z" fill="#0C1B2A"/>
<path d="M335.678 38.0551L332.837 30.9161H319.656L316.779 38.0551H315.052L325.392 12.2686H327.082L337.476 38.0551H335.678ZM320.285 29.3697H332.207L326.237 14.4445L320.285 29.3697Z" fill="#0C1B2A"/>
<path d="M338.825 12.2686H340.821L349.056 24.5684L357.238 12.2686H359.162L349.866 26.2048V38.0551H348.211V26.2048L338.825 12.2686Z" fill="#0C1B2A"/>
<path d="M363.083 12.2686H376.893V13.8151H364.701V23.2917H375.58V24.8382H364.701V36.5086H376.893V38.0551H363.083V12.2686Z" fill="#0C1B2A"/>
<path d="M400 38.0551H398.004L390.164 26.4566H384.158V38.0551H382.539V12.2686H391.602C393.736 12.2686 395.504 12.94 396.907 14.2826C398.31 15.6133 399.011 17.2916 399.011 19.3176C399.011 21.3556 398.358 23.034 397.051 24.3526C395.756 25.6593 394.078 26.3607 392.016 26.4566L400 38.0551ZM384.158 13.8151V24.9101H391.602C393.281 24.9101 394.665 24.3886 395.756 23.3456C396.847 22.2907 397.393 20.948 397.393 19.3176C397.393 17.7232 396.847 16.4105 395.756 15.3795C394.665 14.3366 393.281 13.8151 391.602 13.8151H384.158Z" fill="#0C1B2A"/>
</svg>
