<svg width="48" height="48" viewBox="0 0 48 48" fill="none" xmlns="http://www.w3.org/2000/svg">
<path d="M26 20H31M27 24H31M29 28H31M29 33H19C15 33 14 32 14 28V20C14 16 15 15 19 15H29C33 15 34 16 34 20V28C34 32 33 33 29 33Z" stroke="white" stroke-width="1.5" stroke-linecap="round" stroke-linejoin="round"/>
<path d="M24 28.7552C23.9327 28.0533 23.6219 27.397 23.1214 26.9002C22.621 26.4034 21.9624 26.0974 21.26 26.0352C20.7546 25.9852 20.2454 25.9852 19.74 26.0352C19.0383 26.0993 18.3808 26.4059 17.8807 26.9023C17.3806 27.3987 17.0692 28.054 17 28.7552M20.5 23.7152C20.98 23.7152 21.4404 23.5245 21.7799 23.1851C22.1193 22.8456 22.31 22.3853 22.31 21.9052C22.31 21.4252 22.1193 20.9648 21.7799 20.6254C21.4404 20.2859 20.98 20.0952 20.5 20.0952C20.02 20.0952 19.5596 20.2859 19.2201 20.6254C18.8807 20.9648 18.69 21.4252 18.69 21.9052C18.69 22.3853 18.8807 22.8456 19.2201 23.1851C19.5596 23.5245 20.02 23.7152 20.5 23.7152Z" stroke="white" stroke-width="1.5" stroke-linecap="round" stroke-linejoin="round"/>
</svg>
