<svg width="48" height="48" viewBox="0 0 48 48" fill="none" xmlns="http://www.w3.org/2000/svg">
<path d="M30.5 31.5H26.5M28.5 33.5V29.5M23.99 33.81C22.17 33.81 20.36 33.35 18.98 32.43C16.56 30.81 16.56 28.17 18.98 26.56C21.73 24.72 26.24 24.72 28.99 26.56M24.16 22.87C24.06 22.86 23.94 22.86 23.83 22.87C22.6822 22.831 21.5947 22.3468 20.7976 21.52C20.0006 20.6931 19.5567 19.5885 19.56 18.44C19.5584 17.8573 19.6719 17.2801 19.8938 16.7413C20.1158 16.2026 20.4418 15.7129 20.8534 15.3005C21.2649 14.888 21.7539 14.5608 22.2921 14.3376C22.8303 14.1145 23.4073 13.9997 23.99 14C26.44 14 28.43 15.99 28.43 18.44C28.43 20.84 26.53 22.79 24.16 22.87Z" stroke="white" stroke-width="1.5" stroke-linecap="round" stroke-linejoin="round"/>
</svg>
