<svg width="48" height="48" viewBox="0 0 48 48" fill="none" xmlns="http://www.w3.org/2000/svg">
<path d="M32 20.25V30C32 33 30.21 34 28 34H20C17.79 34 16 33 16 30V20.25C16 17 17.79 16.25 20 16.25C20 16.87 20.25 17.43 20.66 17.84C21.07 18.25 21.63 18.5 22.25 18.5H25.75C26.99 18.5 28 17.49 28 16.25C30.21 16.25 32 17 32 20.25Z" stroke="white" stroke-width="1.5" stroke-linecap="round" stroke-linejoin="round"/>
<path d="M20 25H24M20 29H28M28 16.25C28 17.49 26.99 18.5 25.75 18.5H22.25C21.63 18.5 21.07 18.25 20.66 17.84C20.25 17.43 20 16.87 20 16.25C20 15.01 21.01 14 22.25 14H25.75C26.37 14 26.93 14.25 27.34 14.66C27.75 15.07 28 15.63 28 16.25Z" stroke="white" stroke-width="1.5" stroke-linecap="round" stroke-linejoin="round"/>
</svg>
