<svg width="48" height="48" viewBox="0 0 48 48" fill="none" xmlns="http://www.w3.org/2000/svg">
<path d="M17 20C15 20 14 21 14 23V31C14 33 15 34 17 34H25C23 34 22 33 22 31V20M17 20H22M17 20V18C17 16.9 17.9 16 19 16H22.11C22.03 16.3 22 16.63 22 17V20M26 20V25M30 20V25M18 25V29M29 29H27C26.45 29 26 29.45 26 30V34H30V30C30 29.45 29.55 29 29 29Z" stroke="white" stroke-width="1.5" stroke-miterlimit="10" stroke-linecap="round" stroke-linejoin="round"/>
<path d="M22 31V17C22 15 23 14 25 14H31C33 14 34 15 34 17V31C34 33 33 34 31 34H25C23 34 22 33 22 31Z" stroke="white" stroke-width="1.5" stroke-miterlimit="10" stroke-linecap="round" stroke-linejoin="round"/>
</svg>
