<svg width="48" height="48" viewBox="0 0 48 48" fill="none" xmlns="http://www.w3.org/2000/svg">
<path d="M21 34H27C32 34 34 32 34 27V21C34 16 32 14 27 14H21C16 14 14 16 14 21V27C14 32 16 34 21 34Z" stroke="#FFFFFE" stroke-width="1.5" stroke-linecap="round" stroke-linejoin="round"/>
<path d="M27.5701 30.5V26.6M27.5701 19.45V17.5M27.5701 19.45C27.9115 19.45 28.2496 19.5173 28.5651 19.6479C28.8805 19.7786 29.1671 19.9701 29.4086 20.2115C29.65 20.453 29.8415 20.7396 29.9722 21.055C30.1028 21.3705 30.1701 21.7086 30.1701 22.05C30.1701 22.3914 30.1028 22.7295 29.9722 23.045C29.8415 23.3604 29.65 23.647 29.4086 23.8885C29.1671 24.1299 28.8805 24.3214 28.5651 24.4521C28.2496 24.5827 27.9115 24.65 27.5701 24.65C26.8805 24.65 26.2192 24.3761 25.7316 23.8885C25.244 23.4009 24.9701 22.7396 24.9701 22.05C24.9701 21.3604 25.244 20.6991 25.7316 20.2115C26.2192 19.7239 26.8805 19.45 27.5701 19.45ZM20.4301 30.5V28.55M20.4301 28.55C20.7715 28.55 21.1096 28.4827 21.4251 28.3521C21.7405 28.2214 22.0271 28.0299 22.2686 27.7885C22.51 27.547 22.7015 27.2604 22.8322 26.945C22.9628 26.6295 23.0301 26.2914 23.0301 25.95C23.0301 25.6086 22.9628 25.2705 22.8322 24.955C22.7015 24.6396 22.51 24.353 22.2686 24.1115C22.0271 23.8701 21.7405 23.6786 21.4251 23.5479C21.1096 23.4173 20.7715 23.35 20.4301 23.35C19.7405 23.35 19.0792 23.6239 18.5916 24.1115C18.104 24.5991 17.8301 25.2604 17.8301 25.95C17.8301 26.6396 18.104 27.3009 18.5916 27.7885C19.0792 28.2761 19.7405 28.55 20.4301 28.55ZM20.4301 21.4V17.5" stroke="#FFFFFE" stroke-width="1.5" stroke-miterlimit="10" stroke-linecap="round" stroke-linejoin="round"/>
</svg>
