<svg width="48" height="48" viewBox="0 0 48 48" fill="none" xmlns="http://www.w3.org/2000/svg">
<path d="M28.41 16C30.35 16 31.91 17.57 31.91 19.5C31.91 21.39 30.41 22.93 28.54 23C28.4536 22.99 28.3664 22.99 28.28 23M30.34 32C31.06 31.85 31.74 31.56 32.3 31.13C33.86 29.96 33.86 28.03 32.3 26.86C31.75 26.44 31.08 26.16 30.37 26M21.16 22.87C21.06 22.86 20.94 22.86 20.83 22.87C19.6822 22.831 18.5946 22.3468 17.7976 21.52C17.0006 20.6931 16.5567 19.5885 16.56 18.44C16.56 15.99 18.54 14 21 14C22.1762 13.9788 23.3127 14.4257 24.1595 15.2424C25.0062 16.0591 25.4938 17.1788 25.515 18.355C25.5362 19.5312 25.0893 20.6677 24.2726 21.5144C23.4559 22.3612 22.3362 22.8488 21.16 22.87ZM16.16 26.56C13.74 28.18 13.74 30.82 16.16 32.43C18.91 34.27 23.42 34.27 26.17 32.43C28.59 30.81 28.59 28.17 26.17 26.56C23.43 24.73 18.92 24.73 16.16 26.56V26.56Z" stroke="#FFFFFE" stroke-width="1.5" stroke-linecap="round" stroke-linejoin="round"/>
</svg>
