<svg width="24" height="24" viewBox="0 0 24 24" fill="none" xmlns="http://www.w3.org/2000/svg">
<rect width="24" height="24" rx="12" fill="#EC4C29"/>
<path d="M18 7.98666C15.78 7.76666 13.5467 7.65333 11.32 7.65333C10 7.65333 8.68 7.71999 7.36 7.85333L6 7.98666M9.66667 7.31333L9.81333 6.43999C9.92 5.80666 10 5.33333 11.1267 5.33333H12.8733C14 5.33333 14.0867 5.83333 14.1867 6.44666L14.3333 7.31333M16.5667 10.0933L16.1333 16.8067C16.06 17.8533 16 18.6667 14.14 18.6667H9.86C8 18.6667 7.94 17.8533 7.86667 16.8067L7.43333 10.0933M10.8867 15H13.1067M10.3333 12.3333H13.6667" stroke="white" stroke-width="0.9" stroke-linecap="round" stroke-linejoin="round"/>
</svg>
