<?xml version="1.0" standalone="no"?>
<!DOCTYPE svg PUBLIC "-//W3C//DTD SVG 20010904//EN"
 "http://www.w3.org/TR/2001/REC-SVG-20010904/DTD/svg10.dtd">
<svg version="1.0" xmlns="http://www.w3.org/2000/svg"
 width="700.000000pt" height="700.000000pt" viewBox="0 0 700.000000 700.000000"
 preserveAspectRatio="xMidYMid meet">
<metadata>
Created by potrace 1.14, written by Peter Selinger 2001-2017
</metadata>
<g transform="translate(0.000000,700.000000) scale(0.100000,-0.100000)"
fill="#000000" stroke="none">
<path d="M1322 5913 l3 -308 2168 0 c1497 -1 2167 2 2168 10 1 5 2 144 3 307
l1 298 -2173 0 -2172 0 2 -307z"/>
<path d="M2459 5128 c-1 -2 -2 -93 -3 -203 l-1 -200 -567 0 -568 0 0 -175 c1
-203 -19 -169 160 -275 137 -81 229 -127 415 -207 181 -78 531 -203 624 -223
9 -2 68 -17 131 -34 118 -31 311 -71 435 -90 39 -6 88 -13 110 -17 63 -9 464
-13 525 -4 30 4 86 11 125 15 38 4 72 8 75 10 3 1 25 6 50 9 25 3 54 8 65 10
11 2 56 12 100 21 496 101 1096 335 1465 570 l65 42 -2 159 c0 87 -2 166 -2
174 -1 13 -71 15 -568 15 l-567 0 0 200 -1 200 -1032 3 c-568 1 -1033 1 -1034
0z"/>
<path d="M1321 3835 c1 -301 11 -392 64 -600 107 -418 336 -863 638 -1237 291
-360 671 -699 1103 -981 157 -103 350 -217 367 -217 7 0 29 11 49 25 20 14 39
25 42 25 22 0 374 232 546 360 541 403 965 889 1225 1405 106 211 113 227 171
392 105 298 136 484 138 831 0 140 0 255 -2 257 -2 1 -33 -27 -70 -62 -235
-229 -570 -450 -881 -582 -243 -103 -548 -189 -766 -215 -27 -4 -66 -9 -85
-11 -181 -23 -585 -24 -720 -1 -14 3 -47 7 -74 11 -178 22 -374 68 -565 132
-430 143 -789 363 -1134 692 l-48 46 2 -270z"/>
</g>
</svg>
