<svg width="38" height="20" viewBox="0 0 38 20" fill="none" xmlns="http://www.w3.org/2000/svg">
<rect width="38" height="20" rx="3" fill="#B4D74B"/>
<path d="M12.67 10.662C12.67 11.298 12.564 11.882 12.352 12.414C12.14 12.946 11.842 13.404 11.458 13.788C11.074 14.172 10.612 14.47 10.072 14.682C9.532 14.894 8.932 15 8.272 15H4.966V6.324H8.272C8.932 6.324 9.532 6.432 10.072 6.648C10.612 6.86 11.074 7.158 11.458 7.542C11.842 7.922 12.14 8.378 12.352 8.91C12.564 9.442 12.67 10.026 12.67 10.662ZM11.014 10.662C11.014 10.186 10.95 9.76 10.822 9.384C10.698 9.004 10.516 8.684 10.276 8.424C10.04 8.16 9.752 7.958 9.412 7.818C9.076 7.678 8.696 7.608 8.272 7.608H6.586V13.716H8.272C8.696 13.716 9.076 13.646 9.412 13.506C9.752 13.366 10.04 13.166 10.276 12.906C10.516 12.642 10.698 12.322 10.822 11.946C10.95 11.566 11.014 11.138 11.014 10.662ZM16.5029 8.748C16.9589 8.748 17.3729 8.822 17.7449 8.97C18.1209 9.118 18.4409 9.328 18.7049 9.6C18.9729 9.872 19.1789 10.204 19.3229 10.596C19.4669 10.988 19.5389 11.426 19.5389 11.91C19.5389 12.398 19.4669 12.838 19.3229 13.23C19.1789 13.622 18.9729 13.956 18.7049 14.232C18.4409 14.508 18.1209 14.72 17.7449 14.868C17.3729 15.016 16.9589 15.09 16.5029 15.09C16.0429 15.09 15.6249 15.016 15.2489 14.868C14.8729 14.72 14.5509 14.508 14.2829 14.232C14.0189 13.956 13.8129 13.622 13.6649 13.23C13.5209 12.838 13.4489 12.398 13.4489 11.91C13.4489 11.426 13.5209 10.988 13.6649 10.596C13.8129 10.204 14.0189 9.872 14.2829 9.6C14.5509 9.328 14.8729 9.118 15.2489 8.97C15.6249 8.822 16.0429 8.748 16.5029 8.748ZM16.5029 13.95C17.0149 13.95 17.3929 13.778 17.6369 13.434C17.8849 13.09 18.0089 12.586 18.0089 11.922C18.0089 11.258 17.8849 10.752 17.6369 10.404C17.3929 10.056 17.0149 9.882 16.5029 9.882C15.9829 9.882 15.5969 10.058 15.3449 10.41C15.0969 10.758 14.9729 11.262 14.9729 11.922C14.9729 12.582 15.0969 13.086 15.3449 13.434C15.5969 13.778 15.9829 13.95 16.5029 13.95ZM22.0555 9.6C22.1795 9.476 22.3095 9.362 22.4455 9.258C22.5855 9.15 22.7315 9.06 22.8835 8.988C23.0395 8.912 23.2055 8.854 23.3815 8.814C23.5575 8.77 23.7495 8.748 23.9575 8.748C24.2935 8.748 24.5915 8.806 24.8515 8.922C25.1115 9.034 25.3275 9.194 25.4995 9.402C25.6755 9.606 25.8075 9.852 25.8955 10.14C25.9875 10.424 26.0335 10.738 26.0335 11.082V15H24.5515V11.082C24.5515 10.706 24.4655 10.416 24.2935 10.212C24.1215 10.004 23.8595 9.9 23.5075 9.9C23.2515 9.9 23.0115 9.958 22.7875 10.074C22.5635 10.19 22.3515 10.348 22.1515 10.548V15H20.6695V8.844H21.5755C21.7675 8.844 21.8935 8.934 21.9535 9.114L22.0555 9.6ZM31.4089 11.214C31.4089 11.022 31.3809 10.842 31.3249 10.674C31.2729 10.502 31.1929 10.352 31.0849 10.224C30.9769 10.096 30.8389 9.996 30.6709 9.924C30.5069 9.848 30.3149 9.81 30.0949 9.81C29.6669 9.81 29.3289 9.932 29.0809 10.176C28.8369 10.42 28.6809 10.766 28.6129 11.214H31.4089ZM28.5829 12.108C28.6069 12.424 28.6629 12.698 28.7509 12.93C28.8389 13.158 28.9549 13.348 29.0989 13.5C29.2429 13.648 29.4129 13.76 29.6089 13.836C29.8089 13.908 30.0289 13.944 30.2689 13.944C30.5089 13.944 30.7149 13.916 30.8869 13.86C31.0629 13.804 31.2149 13.742 31.3429 13.674C31.4749 13.606 31.5889 13.544 31.6849 13.488C31.7849 13.432 31.8809 13.404 31.9729 13.404C32.0969 13.404 32.1889 13.45 32.2489 13.542L32.6749 14.082C32.5109 14.274 32.3269 14.436 32.1229 14.568C31.9189 14.696 31.7049 14.8 31.4809 14.88C31.2609 14.956 31.0349 15.01 30.8029 15.042C30.5749 15.074 30.3529 15.09 30.1369 15.09C29.7089 15.09 29.3109 15.02 28.9429 14.88C28.5749 14.736 28.2549 14.526 27.9829 14.25C27.7109 13.97 27.4969 13.626 27.3409 13.218C27.1849 12.806 27.1069 12.33 27.1069 11.79C27.1069 11.37 27.1749 10.976 27.3109 10.608C27.4469 10.236 27.6409 9.914 27.8929 9.642C28.1489 9.366 28.4589 9.148 28.8229 8.988C29.1909 8.828 29.6049 8.748 30.0649 8.748C30.4529 8.748 30.8109 8.81 31.1389 8.934C31.4669 9.058 31.7489 9.24 31.9849 9.48C32.2209 9.716 32.4049 10.008 32.5369 10.356C32.6729 10.7 32.7409 11.094 32.7409 11.538C32.7409 11.762 32.7169 11.914 32.6689 11.994C32.6209 12.07 32.5289 12.108 32.3929 12.108H28.5829Z" fill="#FFFFFE"/>
</svg>
