<svg width="55" height="20" viewBox="0 0 55 20" fill="none" xmlns="http://www.w3.org/2000/svg">
<rect width="55" height="20" rx="3" fill="#EC9E29"/>
<path d="M7.786 10.686C8.082 10.686 8.34 10.65 8.56 10.578C8.78 10.502 8.962 10.396 9.106 10.26C9.254 10.12 9.364 9.952 9.436 9.756C9.508 9.556 9.544 9.334 9.544 9.09C9.544 8.858 9.508 8.648 9.436 8.46C9.364 8.272 9.256 8.112 9.112 7.98C8.968 7.848 8.786 7.748 8.566 7.68C8.346 7.608 8.086 7.572 7.786 7.572H6.58V10.686H7.786ZM7.786 6.324C8.366 6.324 8.868 6.392 9.292 6.528C9.716 6.664 10.066 6.854 10.342 7.098C10.618 7.342 10.822 7.634 10.954 7.974C11.09 8.314 11.158 8.686 11.158 9.09C11.158 9.51 11.088 9.896 10.948 10.248C10.808 10.596 10.598 10.896 10.318 11.148C10.038 11.4 9.686 11.596 9.262 11.736C8.842 11.876 8.35 11.946 7.786 11.946H6.58V15H4.966V6.324H7.786ZM13.4659 9.912C13.6579 9.544 13.8859 9.256 14.1499 9.048C14.4139 8.836 14.7259 8.73 15.0859 8.73C15.3699 8.73 15.5979 8.792 15.7699 8.916L15.6739 10.026C15.6539 10.098 15.6239 10.15 15.5839 10.182C15.5479 10.21 15.4979 10.224 15.4339 10.224C15.3739 10.224 15.2839 10.214 15.1639 10.194C15.0479 10.174 14.9339 10.164 14.8219 10.164C14.6579 10.164 14.5119 10.188 14.3839 10.236C14.2559 10.284 14.1399 10.354 14.0359 10.446C13.9359 10.534 13.8459 10.642 13.7659 10.77C13.6899 10.898 13.6179 11.044 13.5499 11.208V15H12.0679V8.844H12.9379C13.0899 8.844 13.1959 8.872 13.2559 8.928C13.3159 8.98 13.3559 9.076 13.3759 9.216L13.4659 9.912ZM19.0927 8.748C19.5487 8.748 19.9627 8.822 20.3347 8.97C20.7107 9.118 21.0307 9.328 21.2947 9.6C21.5627 9.872 21.7687 10.204 21.9127 10.596C22.0567 10.988 22.1287 11.426 22.1287 11.91C22.1287 12.398 22.0567 12.838 21.9127 13.23C21.7687 13.622 21.5627 13.956 21.2947 14.232C21.0307 14.508 20.7107 14.72 20.3347 14.868C19.9627 15.016 19.5487 15.09 19.0927 15.09C18.6327 15.09 18.2147 15.016 17.8387 14.868C17.4627 14.72 17.1407 14.508 16.8727 14.232C16.6087 13.956 16.4027 13.622 16.2547 13.23C16.1107 12.838 16.0387 12.398 16.0387 11.91C16.0387 11.426 16.1107 10.988 16.2547 10.596C16.4027 10.204 16.6087 9.872 16.8727 9.6C17.1407 9.328 17.4627 9.118 17.8387 8.97C18.2147 8.822 18.6327 8.748 19.0927 8.748ZM19.0927 13.95C19.6047 13.95 19.9827 13.778 20.2267 13.434C20.4747 13.09 20.5987 12.586 20.5987 11.922C20.5987 11.258 20.4747 10.752 20.2267 10.404C19.9827 10.056 19.6047 9.882 19.0927 9.882C18.5727 9.882 18.1867 10.058 17.9347 10.41C17.6867 10.758 17.5627 11.262 17.5627 11.922C17.5627 12.582 17.6867 13.086 17.9347 13.434C18.1867 13.778 18.5727 13.95 19.0927 13.95ZM25.4625 11.772C25.6465 11.772 25.8065 11.748 25.9425 11.7C26.0785 11.648 26.1905 11.578 26.2785 11.49C26.3705 11.402 26.4385 11.296 26.4825 11.172C26.5305 11.048 26.5545 10.912 26.5545 10.764C26.5545 10.46 26.4625 10.22 26.2785 10.044C26.0985 9.864 25.8265 9.774 25.4625 9.774C25.0985 9.774 24.8245 9.864 24.6405 10.044C24.4605 10.22 24.3705 10.46 24.3705 10.764C24.3705 10.908 24.3925 11.042 24.4365 11.166C24.4845 11.29 24.5525 11.398 24.6405 11.49C24.7325 11.578 24.8465 11.648 24.9825 11.7C25.1225 11.748 25.2825 11.772 25.4625 11.772ZM27.1365 15.276C27.1365 15.156 27.1005 15.058 27.0285 14.982C26.9565 14.906 26.8585 14.848 26.7345 14.808C26.6105 14.764 26.4645 14.732 26.2965 14.712C26.1325 14.692 25.9565 14.678 25.7685 14.67C25.5845 14.658 25.3925 14.648 25.1925 14.64C24.9965 14.632 24.8045 14.616 24.6165 14.592C24.4525 14.684 24.3185 14.792 24.2145 14.916C24.1145 15.04 24.0645 15.184 24.0645 15.348C24.0645 15.456 24.0905 15.556 24.1425 15.648C24.1985 15.744 24.2845 15.826 24.4005 15.894C24.5205 15.962 24.6745 16.014 24.8625 16.05C25.0505 16.09 25.2805 16.11 25.5525 16.11C25.8285 16.11 26.0665 16.088 26.2665 16.044C26.4665 16.004 26.6305 15.946 26.7585 15.87C26.8905 15.798 26.9865 15.71 27.0465 15.606C27.1065 15.506 27.1365 15.396 27.1365 15.276ZM28.6125 9.054V9.606C28.6125 9.782 28.5065 9.89 28.2945 9.93L27.7425 10.032C27.8265 10.244 27.8685 10.476 27.8685 10.728C27.8685 11.032 27.8065 11.308 27.6825 11.556C27.5625 11.8 27.3945 12.008 27.1785 12.18C26.9625 12.352 26.7065 12.486 26.4105 12.582C26.1185 12.674 25.8025 12.72 25.4625 12.72C25.3425 12.72 25.2265 12.714 25.1145 12.702C25.0025 12.69 24.8925 12.674 24.7845 12.654C24.5925 12.77 24.4965 12.9 24.4965 13.044C24.4965 13.168 24.5525 13.26 24.6645 13.32C24.7805 13.376 24.9325 13.416 25.1205 13.44C25.3085 13.464 25.5225 13.48 25.7625 13.488C26.0025 13.492 26.2485 13.504 26.5005 13.524C26.7525 13.544 26.9985 13.58 27.2385 13.632C27.4785 13.68 27.6925 13.758 27.8805 13.866C28.0685 13.974 28.2185 14.122 28.3305 14.31C28.4465 14.494 28.5045 14.732 28.5045 15.024C28.5045 15.296 28.4365 15.56 28.3005 15.816C28.1685 16.072 27.9745 16.3 27.7185 16.5C27.4665 16.7 27.1545 16.86 26.7825 16.98C26.4145 17.104 25.9945 17.166 25.5225 17.166C25.0585 17.166 24.6545 17.12 24.3105 17.028C23.9665 16.94 23.6805 16.82 23.4525 16.668C23.2245 16.52 23.0545 16.348 22.9425 16.152C22.8305 15.956 22.7745 15.752 22.7745 15.54C22.7745 15.252 22.8605 15.012 23.0325 14.82C23.2085 14.624 23.4485 14.468 23.7525 14.352C23.5885 14.268 23.4585 14.156 23.3625 14.016C23.2665 13.876 23.2185 13.692 23.2185 13.464C23.2185 13.372 23.2345 13.278 23.2665 13.182C23.3025 13.082 23.3525 12.984 23.4165 12.888C23.4845 12.792 23.5685 12.702 23.6685 12.618C23.7685 12.53 23.8865 12.452 24.0225 12.384C23.7105 12.216 23.4645 11.992 23.2845 11.712C23.1085 11.432 23.0205 11.104 23.0205 10.728C23.0205 10.424 23.0805 10.15 23.2005 9.906C23.3245 9.658 23.4945 9.448 23.7105 9.276C23.9305 9.1 24.1885 8.966 24.4845 8.874C24.7845 8.782 25.1105 8.736 25.4625 8.736C25.7265 8.736 25.9745 8.764 26.2065 8.82C26.4385 8.872 26.6505 8.95 26.8425 9.054H28.6125ZM30.9503 9.912C31.1423 9.544 31.3703 9.256 31.6343 9.048C31.8983 8.836 32.2103 8.73 32.5703 8.73C32.8543 8.73 33.0823 8.792 33.2543 8.916L33.1583 10.026C33.1383 10.098 33.1083 10.15 33.0683 10.182C33.0323 10.21 32.9823 10.224 32.9183 10.224C32.8583 10.224 32.7683 10.214 32.6483 10.194C32.5323 10.174 32.4183 10.164 32.3063 10.164C32.1423 10.164 31.9963 10.188 31.8683 10.236C31.7403 10.284 31.6243 10.354 31.5203 10.446C31.4203 10.534 31.3303 10.642 31.2503 10.77C31.1743 10.898 31.1023 11.044 31.0343 11.208V15H29.5523V8.844H30.4223C30.5743 8.844 30.6803 8.872 30.7403 8.928C30.8003 8.98 30.8403 9.076 30.8603 9.216L30.9503 9.912ZM37.8191 11.214C37.8191 11.022 37.7911 10.842 37.7351 10.674C37.6831 10.502 37.6031 10.352 37.4951 10.224C37.3871 10.096 37.2491 9.996 37.0811 9.924C36.9171 9.848 36.7251 9.81 36.5051 9.81C36.0771 9.81 35.7391 9.932 35.4911 10.176C35.2471 10.42 35.0911 10.766 35.0231 11.214H37.8191ZM34.9931 12.108C35.0171 12.424 35.0731 12.698 35.1611 12.93C35.2491 13.158 35.3651 13.348 35.5091 13.5C35.6531 13.648 35.8231 13.76 36.0191 13.836C36.2191 13.908 36.4391 13.944 36.6791 13.944C36.9191 13.944 37.1251 13.916 37.2971 13.86C37.4731 13.804 37.6251 13.742 37.7531 13.674C37.8851 13.606 37.9991 13.544 38.0951 13.488C38.1951 13.432 38.2911 13.404 38.3831 13.404C38.5071 13.404 38.5991 13.45 38.6591 13.542L39.0851 14.082C38.9211 14.274 38.7371 14.436 38.5331 14.568C38.3291 14.696 38.1151 14.8 37.8911 14.88C37.6711 14.956 37.4451 15.01 37.2131 15.042C36.9851 15.074 36.7631 15.09 36.5471 15.09C36.1191 15.09 35.7211 15.02 35.3531 14.88C34.9851 14.736 34.6651 14.526 34.3931 14.25C34.1211 13.97 33.9071 13.626 33.7511 13.218C33.5951 12.806 33.5171 12.33 33.5171 11.79C33.5171 11.37 33.5851 10.976 33.7211 10.608C33.8571 10.236 34.0511 9.914 34.3031 9.642C34.5591 9.366 34.8691 9.148 35.2331 8.988C35.6011 8.828 36.0151 8.748 36.4751 8.748C36.8631 8.748 37.2211 8.81 37.5491 8.934C37.8771 9.058 38.1591 9.24 38.3951 9.48C38.6311 9.716 38.8151 10.008 38.9471 10.356C39.0831 10.7 39.1511 11.094 39.1511 11.538C39.1511 11.762 39.1271 11.914 39.0791 11.994C39.0311 12.07 38.9391 12.108 38.8031 12.108H34.9931ZM44.0193 10.044C43.9793 10.108 43.9373 10.154 43.8933 10.182C43.8493 10.206 43.7933 10.218 43.7253 10.218C43.6533 10.218 43.5753 10.198 43.4913 10.158C43.4113 10.118 43.3173 10.074 43.2093 10.026C43.1013 9.974 42.9773 9.928 42.8372 9.888C42.7013 9.848 42.5393 9.828 42.3513 9.828C42.0593 9.828 41.8293 9.89 41.6613 10.014C41.4973 10.138 41.4153 10.3 41.4153 10.5C41.4153 10.632 41.4573 10.744 41.5413 10.836C41.6293 10.924 41.7433 11.002 41.8833 11.07C42.0273 11.138 42.1893 11.2 42.3693 11.256C42.5493 11.308 42.7313 11.366 42.9153 11.43C43.1033 11.494 43.2873 11.568 43.4673 11.652C43.6473 11.732 43.8073 11.836 43.9473 11.964C44.0913 12.088 44.2053 12.238 44.2893 12.414C44.3773 12.59 44.4213 12.802 44.4213 13.05C44.4213 13.346 44.3673 13.62 44.2593 13.872C44.1553 14.12 43.9993 14.336 43.7913 14.52C43.5833 14.7 43.3253 14.842 43.0173 14.946C42.7133 15.046 42.3613 15.096 41.9613 15.096C41.7493 15.096 41.5413 15.076 41.3373 15.036C41.1373 15 40.9433 14.948 40.7553 14.88C40.5713 14.812 40.3993 14.732 40.2393 14.64C40.0833 14.548 39.9453 14.448 39.8253 14.34L40.1673 13.776C40.2113 13.708 40.2633 13.656 40.3232 13.62C40.3832 13.584 40.4593 13.566 40.5513 13.566C40.6433 13.566 40.7293 13.592 40.8093 13.644C40.8933 13.696 40.9893 13.752 41.0973 13.812C41.2053 13.872 41.3313 13.928 41.4753 13.98C41.6233 14.032 41.8093 14.058 42.0333 14.058C42.2093 14.058 42.3593 14.038 42.4833 13.998C42.6113 13.954 42.7153 13.898 42.7953 13.83C42.8793 13.762 42.9392 13.684 42.9753 13.596C43.0153 13.504 43.0353 13.41 43.0353 13.314C43.0353 13.17 42.9913 13.052 42.9033 12.96C42.8193 12.868 42.7053 12.788 42.5612 12.72C42.4213 12.652 42.2593 12.592 42.0753 12.54C41.8953 12.484 41.7093 12.424 41.5173 12.36C41.3293 12.296 41.1433 12.222 40.9593 12.138C40.7793 12.05 40.6173 11.94 40.4733 11.808C40.3333 11.676 40.2193 11.514 40.1313 11.322C40.0473 11.13 40.0053 10.898 40.0053 10.626C40.0053 10.374 40.0553 10.134 40.1553 9.906C40.2553 9.678 40.4013 9.48 40.5933 9.312C40.7893 9.14 41.0313 9.004 41.3193 8.904C41.6113 8.8 41.9473 8.748 42.3273 8.748C42.7513 8.748 43.1373 8.818 43.4853 8.958C43.8333 9.098 44.1233 9.282 44.3553 9.51L44.0193 10.044ZM49.2927 10.044C49.2527 10.108 49.2107 10.154 49.1667 10.182C49.1227 10.206 49.0667 10.218 48.9987 10.218C48.9267 10.218 48.8487 10.198 48.7647 10.158C48.6847 10.118 48.5907 10.074 48.4827 10.026C48.3747 9.974 48.2507 9.928 48.1107 9.888C47.9747 9.848 47.8127 9.828 47.6247 9.828C47.3327 9.828 47.1027 9.89 46.9347 10.014C46.7707 10.138 46.6887 10.3 46.6887 10.5C46.6887 10.632 46.7307 10.744 46.8147 10.836C46.9027 10.924 47.0167 11.002 47.1567 11.07C47.3007 11.138 47.4627 11.2 47.6427 11.256C47.8227 11.308 48.0047 11.366 48.1887 11.43C48.3767 11.494 48.5607 11.568 48.7407 11.652C48.9207 11.732 49.0807 11.836 49.2207 11.964C49.3647 12.088 49.4787 12.238 49.5627 12.414C49.6507 12.59 49.6947 12.802 49.6947 13.05C49.6947 13.346 49.6407 13.62 49.5327 13.872C49.4287 14.12 49.2727 14.336 49.0647 14.52C48.8567 14.7 48.5987 14.842 48.2907 14.946C47.9867 15.046 47.6347 15.096 47.2347 15.096C47.0227 15.096 46.8147 15.076 46.6107 15.036C46.4107 15 46.2167 14.948 46.0287 14.88C45.8447 14.812 45.6727 14.732 45.5127 14.64C45.3567 14.548 45.2187 14.448 45.0987 14.34L45.4407 13.776C45.4847 13.708 45.5367 13.656 45.5967 13.62C45.6567 13.584 45.7327 13.566 45.8247 13.566C45.9167 13.566 46.0027 13.592 46.0827 13.644C46.1667 13.696 46.2627 13.752 46.3707 13.812C46.4787 13.872 46.6047 13.928 46.7487 13.98C46.8967 14.032 47.0827 14.058 47.3067 14.058C47.4827 14.058 47.6327 14.038 47.7567 13.998C47.8847 13.954 47.9887 13.898 48.0687 13.83C48.1527 13.762 48.2127 13.684 48.2487 13.596C48.2887 13.504 48.3087 13.41 48.3087 13.314C48.3087 13.17 48.2647 13.052 48.1767 12.96C48.0927 12.868 47.9787 12.788 47.8347 12.72C47.6947 12.652 47.5327 12.592 47.3487 12.54C47.1687 12.484 46.9827 12.424 46.7907 12.36C46.6027 12.296 46.4167 12.222 46.2327 12.138C46.0527 12.05 45.8907 11.94 45.7467 11.808C45.6067 11.676 45.4927 11.514 45.4047 11.322C45.3207 11.13 45.2787 10.898 45.2787 10.626C45.2787 10.374 45.3287 10.134 45.4287 9.906C45.5287 9.678 45.6747 9.48 45.8667 9.312C46.0627 9.14 46.3047 9.004 46.5927 8.904C46.8847 8.8 47.2207 8.748 47.6007 8.748C48.0247 8.748 48.4107 8.818 48.7587 8.958C49.1067 9.098 49.3967 9.282 49.6287 9.51L49.2927 10.044Z" fill="#FFFFFE"/>
</svg>
