<svg width="38" height="20" viewBox="0 0 38 20" fill="none" xmlns="http://www.w3.org/2000/svg">
<rect width="38" height="20" rx="3" fill="#0057A2"/>
<path d="M11.026 7.65H8.41V15H6.796V7.65H4.18V6.324H11.026V7.65ZM13.2099 8.748C13.6659 8.748 14.0799 8.822 14.4519 8.97C14.8279 9.118 15.1479 9.328 15.4119 9.6C15.6799 9.872 15.8859 10.204 16.0299 10.596C16.1739 10.988 16.2459 11.426 16.2459 11.91C16.2459 12.398 16.1739 12.838 16.0299 13.23C15.8859 13.622 15.6799 13.956 15.4119 14.232C15.1479 14.508 14.8279 14.72 14.4519 14.868C14.0799 15.016 13.6659 15.09 13.2099 15.09C12.7499 15.09 12.3319 15.016 11.9559 14.868C11.5799 14.72 11.2579 14.508 10.9899 14.232C10.7259 13.956 10.5199 13.622 10.3719 13.23C10.2279 12.838 10.1559 12.398 10.1559 11.91C10.1559 11.426 10.2279 10.988 10.3719 10.596C10.5199 10.204 10.7259 9.872 10.9899 9.6C11.2579 9.328 11.5799 9.118 11.9559 8.97C12.3319 8.822 12.7499 8.748 13.2099 8.748ZM13.2099 13.95C13.7219 13.95 14.0999 13.778 14.3439 13.434C14.5919 13.09 14.7159 12.586 14.7159 11.922C14.7159 11.258 14.5919 10.752 14.3439 10.404C14.0999 10.056 13.7219 9.882 13.2099 9.882C12.6899 9.882 12.3039 10.058 12.0519 10.41C11.8039 10.758 11.6799 11.262 11.6799 11.922C11.6799 12.582 11.8039 13.086 12.0519 13.434C12.3039 13.778 12.6899 13.95 13.2099 13.95ZM24.1585 10.416C23.9905 10.212 23.8065 10.068 23.6065 9.984C23.4105 9.9 23.1985 9.858 22.9705 9.858C22.7465 9.858 22.5445 9.9 22.3645 9.984C22.1845 10.068 22.0305 10.196 21.9025 10.368C21.7745 10.536 21.6765 10.752 21.6085 11.016C21.5405 11.276 21.5065 11.584 21.5065 11.94C21.5065 12.3 21.5345 12.606 21.5905 12.858C21.6505 13.106 21.7345 13.31 21.8425 13.47C21.9505 13.626 22.0825 13.74 22.2385 13.812C22.3945 13.88 22.5685 13.914 22.7605 13.914C23.0685 13.914 23.3305 13.85 23.5465 13.722C23.7625 13.594 23.9665 13.412 24.1585 13.176V10.416ZM25.6405 6.084V15H24.7345C24.5385 15 24.4145 14.91 24.3625 14.73L24.2365 14.136C23.9885 14.42 23.7025 14.65 23.3785 14.826C23.0585 15.002 22.6845 15.09 22.2565 15.09C21.9205 15.09 21.6125 15.02 21.3325 14.88C21.0525 14.74 20.8105 14.538 20.6065 14.274C20.4065 14.006 20.2505 13.676 20.1385 13.284C20.0305 12.892 19.9765 12.444 19.9765 11.94C19.9765 11.484 20.0385 11.06 20.1625 10.668C20.2865 10.276 20.4645 9.936 20.6965 9.648C20.9285 9.36 21.2065 9.136 21.5305 8.976C21.8545 8.812 22.2185 8.73 22.6225 8.73C22.9665 8.73 23.2605 8.784 23.5045 8.892C23.7485 9 23.9665 9.146 24.1585 9.33V6.084H25.6405ZM29.8271 8.748C30.2831 8.748 30.6971 8.822 31.0691 8.97C31.4451 9.118 31.7651 9.328 32.0291 9.6C32.2971 9.872 32.5031 10.204 32.6471 10.596C32.7911 10.988 32.8631 11.426 32.8631 11.91C32.8631 12.398 32.7911 12.838 32.6471 13.23C32.5031 13.622 32.2971 13.956 32.0291 14.232C31.7651 14.508 31.4451 14.72 31.0691 14.868C30.6971 15.016 30.2831 15.09 29.8271 15.09C29.3671 15.09 28.9491 15.016 28.5731 14.868C28.1971 14.72 27.8751 14.508 27.6071 14.232C27.3431 13.956 27.1371 13.622 26.9891 13.23C26.8451 12.838 26.7731 12.398 26.7731 11.91C26.7731 11.426 26.8451 10.988 26.9891 10.596C27.1371 10.204 27.3431 9.872 27.6071 9.6C27.8751 9.328 28.1971 9.118 28.5731 8.97C28.9491 8.822 29.3671 8.748 29.8271 8.748ZM29.8271 13.95C30.3391 13.95 30.7171 13.778 30.9611 13.434C31.2091 13.09 31.3331 12.586 31.3331 11.922C31.3331 11.258 31.2091 10.752 30.9611 10.404C30.7171 10.056 30.3391 9.882 29.8271 9.882C29.3071 9.882 28.9211 10.058 28.6691 10.41C28.4211 10.758 28.2971 11.262 28.2971 11.922C28.2971 12.582 28.4211 13.086 28.6691 13.434C28.9211 13.778 29.3071 13.95 29.8271 13.95Z" fill="#FFFFFE"/>
</svg>
