<svg width="32" height="32" viewBox="0 0 32 32" fill="none" xmlns="http://www.w3.org/2000/svg">
<rect width="32" height="32" rx="16" fill="#0057A2"/>
<g clip-path="url(#clip0_1097_26219)">
<rect width="16" height="16" transform="translate(8 8)" fill="#0057A2"/>
<path d="M21.0667 14.6667H17.3333V10.9333C17.3333 10.2 16.7333 10 16 10C15.2667 10 14.6667 10.2 14.6667 10.9333V14.6667H10.9333C10.2 14.6667 10 15.2667 10 16C10 16.7333 10.2 17.3333 10.9333 17.3333H14.6667V21.0667C14.6667 21.8 15.2667 22 16 22C16.7333 22 17.3333 21.8 17.3333 21.0667V17.3333H21.0667C21.8 17.3333 22 16.7333 22 16C22 15.2667 21.8 14.6667 21.0667 14.6667Z" fill="#FFFFFE"/>
</g>
<defs>
<clipPath id="clip0_1097_26219">
<rect width="16" height="16" fill="white" transform="translate(8 8)"/>
</clipPath>
</defs>
</svg>
