<svg width="24" height="24" viewBox="0 0 24 24" fill="none" xmlns="http://www.w3.org/2000/svg">
<path d="M14 8H19M15 12H19M17 16H19M17 21H7C3 21 2 20 2 16V8C2 4 3 3 7 3H17C21 3 22 4 22 8V16C22 20 21 21 17 21Z" stroke="#003263" stroke-width="1.5" stroke-linecap="round" stroke-linejoin="round"/>
<path d="M12 16.7552C11.9327 16.0533 11.6219 15.397 11.1214 14.9002C10.621 14.4034 9.96243 14.0974 9.26 14.0352C8.75457 13.9852 8.24543 13.9852 7.74 14.0352C7.03826 14.0993 6.38078 14.4059 5.88069 14.9023C5.3806 15.3987 5.06918 16.054 5 16.7552M8.5 11.7152C8.98004 11.7152 9.44042 11.5245 9.77986 11.1851C10.1193 10.8456 10.31 10.3853 10.31 9.90521C10.31 9.42517 10.1193 8.96479 9.77986 8.62535C9.44042 8.28591 8.98004 8.09521 8.5 8.09521C8.01996 8.09521 7.55958 8.28591 7.22014 8.62535C6.8807 8.96479 6.69 9.42517 6.69 9.90521C6.69 10.3853 6.8807 10.8456 7.22014 11.1851C7.55958 11.5245 8.01996 11.7152 8.5 11.7152Z" stroke="#003263" stroke-width="1.5" stroke-linecap="round" stroke-linejoin="round"/>
</svg>
