<svg width="32" height="32" viewBox="0 0 32 32" fill="none" xmlns="http://www.w3.org/2000/svg">
<rect width="32" height="32" rx="16" fill="#DEE9F2"/>
<path d="M18 12H23M19 16H23M21 20H23M21 25H11C7 25 6 24 6 20V12C6 8 7 7 11 7H21C25 7 26 8 26 12V20C26 24 25 25 21 25Z" stroke="#003263" stroke-width="1.5" stroke-linecap="round" stroke-linejoin="round"/>
<path d="M16 20.7552C15.9327 20.0533 15.6219 19.397 15.1214 18.9002C14.621 18.4034 13.9624 18.0974 13.26 18.0352C12.7546 17.9852 12.2454 17.9852 11.74 18.0352C11.0383 18.0993 10.3808 18.4059 9.88069 18.9023C9.3806 19.3987 9.06918 20.054 9 20.7552M12.5 15.7152C12.98 15.7152 13.4404 15.5245 13.7799 15.1851C14.1193 14.8456 14.31 14.3853 14.31 13.9052C14.31 13.4252 14.1193 12.9648 13.7799 12.6254C13.4404 12.2859 12.98 12.0952 12.5 12.0952C12.02 12.0952 11.5596 12.2859 11.2201 12.6254C10.8807 12.9648 10.69 13.4252 10.69 13.9052C10.69 14.3853 10.8807 14.8456 11.2201 15.1851C11.5596 15.5245 12.02 15.7152 12.5 15.7152Z" stroke="#003263" stroke-width="1.5" stroke-linecap="round" stroke-linejoin="round"/>
</svg>
