<svg width="16" height="16" viewBox="0 0 16 16" fill="none" xmlns="http://www.w3.org/2000/svg">
<g id="Iconsax/Linear/buildings" clip-path="url(#clip0_1736_10093)">
<path id="Vector" d="M3.33334 5.33341C2.00001 5.33341 1.33334 6.00008 1.33334 7.33341V12.6667C1.33334 14.0001 2.00001 14.6667 3.33334 14.6667H8.66668C7.33334 14.6667 6.66668 14.0001 6.66668 12.6667V5.33341M3.33334 5.33341H6.66668M3.33334 5.33341V4.00008C3.33334 3.26675 3.93334 2.66675 4.66668 2.66675H6.74001C6.68668 2.86675 6.66668 3.08675 6.66668 3.33341V5.33341M9.33334 5.33341V8.66675M12 5.33341V8.66675M4.00001 8.66675V11.3334M11.3333 11.3334H10C9.63334 11.3334 9.33334 11.6334 9.33334 12.0001V14.6667H12V12.0001C12 11.6334 11.7 11.3334 11.3333 11.3334Z" stroke="#EE7000" stroke-width="0.9" stroke-miterlimit="10" stroke-linecap="round" stroke-linejoin="round"/>
<path id="Vector_2" d="M6.66666 12.6666V3.33325C6.66666 1.99992 7.33332 1.33325 8.66666 1.33325H12.6667C14 1.33325 14.6667 1.99992 14.6667 3.33325V12.6666C14.6667 13.9999 14 14.6666 12.6667 14.6666H8.66666C7.33332 14.6666 6.66666 13.9999 6.66666 12.6666Z" stroke="#EE7000" stroke-width="0.9" stroke-miterlimit="10" stroke-linecap="round" stroke-linejoin="round"/>
</g>
<defs>
<clipPath id="clip0_1736_10093">
<rect width="16" height="16" fill="white"/>
</clipPath>
</defs>
</svg>
