<svg width="14" height="15" viewBox="0 0 14 15" fill="none" xmlns="http://www.w3.org/2000/svg">
<g id="Iconsax/Linear/call">
<path id="Vector" d="M12.8158 11.1926C12.8158 11.4026 12.7692 11.6184 12.67 11.8284C12.5708 12.0384 12.4425 12.2367 12.2733 12.4234C11.9875 12.7384 11.6725 12.9659 11.3167 13.1117C10.9667 13.2576 10.5875 13.3334 10.1792 13.3334C9.58416 13.3334 8.94833 13.1934 8.2775 12.9076C7.60666 12.6217 6.93583 12.2367 6.27083 11.7526C5.59306 11.2568 4.95348 10.7108 4.3575 10.1192C3.76761 9.52542 3.22356 8.88776 2.73 8.21175C2.25166 7.54675 1.86666 6.88175 1.58666 6.22258C1.30666 5.55758 1.16666 4.92175 1.16666 4.31508C1.16666 3.91841 1.23666 3.53925 1.37666 3.18925C1.51666 2.83341 1.73833 2.50675 2.0475 2.21508C2.42083 1.84758 2.82916 1.66675 3.26083 1.66675C3.42416 1.66675 3.5875 1.70175 3.73333 1.77175C3.885 1.84175 4.01916 1.94675 4.12416 2.09841L5.4775 4.00592C5.5825 4.15175 5.65833 4.28591 5.71083 4.41425C5.76333 4.53675 5.7925 4.65925 5.7925 4.77008C5.7925 4.91008 5.75166 5.05008 5.67 5.18425C5.59416 5.31841 5.48333 5.45841 5.34333 5.59841L4.9 6.05925C4.83583 6.12341 4.80666 6.19925 4.80666 6.29258C4.80666 6.33925 4.8125 6.38008 4.82416 6.42675C4.84166 6.47341 4.85916 6.50841 4.87083 6.54341C4.97583 6.73591 5.15666 6.98675 5.41333 7.29008C5.67583 7.59342 5.95583 7.90258 6.25916 8.21175C6.57416 8.52092 6.8775 8.80675 7.18666 9.06925C7.49 9.32591 7.74083 9.50092 7.93916 9.60592C7.96833 9.61758 8.00333 9.63508 8.04416 9.65258C8.09083 9.67008 8.1375 9.67591 8.19 9.67591C8.28916 9.67591 8.365 9.64092 8.42916 9.57675L8.8725 9.13925C9.01833 8.99342 9.15833 8.88258 9.2925 8.81258C9.42666 8.73092 9.56083 8.69008 9.70666 8.69008C9.8175 8.69008 9.93416 8.71342 10.0625 8.76592C10.1908 8.81842 10.325 8.89425 10.4708 8.99342L12.4017 10.3642C12.5533 10.4692 12.6583 10.5917 12.7225 10.7376C12.7808 10.8834 12.8158 11.0292 12.8158 11.1926Z" stroke="#EE7000" stroke-width="0.9" stroke-miterlimit="10"/>
</g>
</svg>
