<svg width="44" height="44" viewBox="0 0 44 44" fill="none" xmlns="http://www.w3.org/2000/svg">
<g clip-path="url(#clip0_210_15979)">
<path d="M21.3334 15.3333H20C16.6667 15.3333 15.3334 16.6667 15.3334 20V24C15.3334 27.3333 16.6667 28.6667 20 28.6667H24C27.3334 28.6667 28.6667 27.3333 28.6667 24V22.6667" stroke="#536891" stroke-width="0.9" stroke-linecap="round" stroke-linejoin="round"/>
<path d="M24.6934 16.0133L19.44 21.2667C19.24 21.4667 19.04 21.86 19 22.1467L18.7134 24.1533C18.6067 24.88 19.12 25.3867 19.8467 25.2867L21.8534 25C22.1334 24.96 22.5267 24.76 22.7334 24.56L27.9867 19.3067C28.8934 18.4 29.32 17.3467 27.9867 16.0133C26.6534 14.68 25.6 15.1067 24.6934 16.0133Z" stroke="#536891" stroke-width="0.9" stroke-miterlimit="10" stroke-linecap="round" stroke-linejoin="round"/>
<path d="M23.9399 16.7667C24.161 17.5516 24.5799 18.2667 25.1566 18.8434C25.7332 19.42 26.4483 19.8389 27.2333 20.06" stroke="#536891" stroke-width="0.9" stroke-miterlimit="10" stroke-linecap="round" stroke-linejoin="round"/>
</g>
<defs>
<clipPath id="clip0_210_15979">
<rect width="16" height="16" fill="white" transform="translate(14 14)"/>
</clipPath>
</defs>
</svg>
