<svg width="48" height="48" viewBox="0 0 48 48" fill="none" xmlns="http://www.w3.org/2000/svg">
<path d="M26 20H31M27 24H31M29 28H31M29 33H19C15 33 14 32 14 28V20C14 16 15 15 19 15H29C33 15 34 16 34 20V28C34 32 33 33 29 33Z" stroke="#11151B" stroke-width="1.5" stroke-linecap="round" stroke-linejoin="round"/>
<path d="M24 28.3299C23.9327 27.628 23.6219 26.9717 23.1214 26.4749C22.621 25.9781 21.9624 25.6721 21.26 25.6099C20.7546 25.5599 20.2454 25.5599 19.74 25.6099C19.0383 25.674 18.3808 25.9806 17.8807 26.477C17.3806 26.9735 17.0692 27.6287 17 28.3299M20.5 23.2899C20.98 23.2899 21.4404 23.0992 21.7799 22.7598C22.1193 22.4203 22.31 21.96 22.31 21.4799C22.31 20.9999 22.1193 20.5395 21.7799 20.2001C21.4404 19.8606 20.98 19.6699 20.5 19.6699C20.02 19.6699 19.5596 19.8606 19.2201 20.2001C18.8807 20.5395 18.69 20.9999 18.69 21.4799C18.69 21.96 18.8807 22.4203 19.2201 22.7598C19.5596 23.0992 20.02 23.2899 20.5 23.2899Z" stroke="#11151B" stroke-width="1.5" stroke-linecap="round" stroke-linejoin="round"/>
</svg>
