<svg width="24" height="25" viewBox="0 0 24 25" fill="none" xmlns="http://www.w3.org/2000/svg">
<path d="M14 8.5H19M15 12.5H19M17 16.5H19M17 21.5H7C3 21.5 2 20.5 2 16.5V8.5C2 4.5 3 3.5 7 3.5H17C21 3.5 22 4.5 22 8.5V16.5C22 20.5 21 21.5 17 21.5Z" stroke="black" stroke-width="1.5" stroke-linecap="round" stroke-linejoin="round"/>
<path d="M12 16.8299C11.9327 16.128 11.6219 15.4717 11.1214 14.9749C10.621 14.4781 9.96243 14.1721 9.26 14.1099C8.75457 14.0599 8.24543 14.0599 7.74 14.1099C7.03826 14.174 6.38078 14.4806 5.88069 14.977C5.3806 15.4735 5.06918 16.1287 5 16.8299M8.5 11.7899C8.98004 11.7899 9.44042 11.5992 9.77986 11.2598C10.1193 10.9203 10.31 10.46 10.31 9.97992C10.31 9.49988 10.1193 9.0395 9.77986 8.70006C9.44042 8.36062 8.98004 8.16992 8.5 8.16992C8.01996 8.16992 7.55958 8.36062 7.22014 8.70006C6.8807 9.0395 6.69 9.49988 6.69 9.97992C6.69 10.46 6.8807 10.9203 7.22014 11.2598C7.55958 11.5992 8.01996 11.7899 8.5 11.7899Z" stroke="black" stroke-width="1.5" stroke-linecap="round" stroke-linejoin="round"/>
</svg>
