<svg width="16" height="16" viewBox="0 0 16 16" fill="none" xmlns="http://www.w3.org/2000/svg">
<g clip-path="url(#clip0_210_16521)">
<path d="M14.3333 1.66663L10.6667 5.33329M14.3333 1.66663H10M14.3333 1.66663V5.99996M6.83334 14.3333C7.51183 14.3333 8.18369 14.1997 8.81054 13.94C9.43739 13.6804 10.007 13.2998 10.4867 12.82C10.9665 12.3402 11.3471 11.7707 11.6067 11.1438C11.8664 10.517 12 9.84512 12 9.16663C12 8.48813 11.8664 7.81628 11.6067 7.18943C11.3471 6.56258 10.9665 5.99301 10.4867 5.51324C10.007 5.03347 9.43739 4.6529 8.81054 4.39325C8.18369 4.1336 7.51183 3.99996 6.83334 3.99996C5.46305 3.99996 4.14889 4.5443 3.17995 5.51324C2.21102 6.48218 1.66667 7.79634 1.66667 9.16663C1.66667 10.5369 2.21102 11.8511 3.17995 12.82C4.14889 13.7889 5.46305 14.3333 6.83334 14.3333Z" stroke="#0086FA" stroke-width="1.5" stroke-linecap="round" stroke-linejoin="round"/>
</g>
<defs>
<clipPath id="clip0_210_16521">
<rect width="16" height="16" fill="white"/>
</clipPath>
</defs>
</svg>
