<svg width="104" height="98" viewBox="0 0 104 98" fill="none" xmlns="http://www.w3.org/2000/svg">
<g filter="url(#filter0_d_504_20823)">
<rect x="30" y="24" width="44" height="44" rx="22" fill="#B8DEFF" shape-rendering="crispEdges"/>
<path fill-rule="evenodd" clip-rule="evenodd" d="M46.7702 42.9099C46.7702 40.5697 48.3077 38.5832 50.426 37.9071C51.4546 37.6239 52.5398 37.6199 53.57 37.8951C55.7064 38.5609 57.2702 40.5629 57.2702 42.9099V45.7999C57.2702 46.1951 57.3516 46.6506 57.4644 47.062C57.5775 47.4743 57.7385 47.9017 57.9306 48.2347L57.9305 48.2348L57.9377 48.2468L59.0871 50.1558L59.0874 50.1563C59.5012 50.8467 59.1656 51.7396 58.4148 51.9878L58.4125 51.9886C54.2573 53.3769 49.7747 53.377 45.6193 51.989C45.1625 51.8341 44.8997 51.5488 44.7898 51.252C44.6801 50.9558 44.6939 50.5705 44.9427 50.1568L44.9428 50.1566L46.0927 48.2468L46.0927 48.2468L46.0944 48.244C46.2947 47.908 46.4594 47.4775 46.5741 47.0643C46.6888 46.6513 46.7702 46.1953 46.7702 45.7999V42.9099ZM58.7702 42.9099C58.7702 40.0381 56.9554 37.5719 54.4153 36.6009C53.9483 35.7577 53.0497 35.1899 52.02 35.1899C50.9917 35.1899 50.0941 35.7562 49.6266 36.5976C47.0817 37.5648 45.2702 40.0283 45.2702 42.9099V45.7999C45.2702 46.0145 45.2216 46.3286 45.1288 46.6631C45.0362 46.9965 44.9163 47.2905 44.8068 47.4746L44.806 47.4759L43.6577 49.3831L43.6576 49.3832C43.1965 50.1495 43.1003 51.0091 43.3831 51.7728C43.6656 52.5357 44.2974 53.1252 45.1398 53.4103L45.1425 53.4113C46.2312 53.775 47.3408 54.05 48.4611 54.2363C48.6435 54.7865 48.9523 55.2922 49.3694 55.71L49.3698 55.7104C50.0443 56.3849 50.9927 56.8101 52.0201 56.8101C53.6746 56.8101 55.0859 55.7271 55.5811 54.2344C56.697 54.0481 57.8023 53.7739 58.8867 53.4116C60.555 52.8594 61.2789 50.8933 60.3733 49.384L60.3727 49.3831L59.2267 47.4796C59.1196 47.2923 59.002 46.9973 58.911 46.6653C58.8188 46.3293 58.7702 46.0148 58.7702 45.7999V42.9099ZM53.7788 54.458C52.6079 54.5537 51.4312 54.5539 50.2603 54.4587C50.3132 54.5253 50.37 54.5892 50.4307 54.65C50.8362 55.0554 51.4077 55.3101 52.0201 55.3101C52.7293 55.3101 53.3654 54.9761 53.7788 54.458Z" fill="#003263"/>
</g>
<defs>
<filter id="filter0_d_504_20823" x="0" y="0" width="104" height="104" filterUnits="userSpaceOnUse" color-interpolation-filters="sRGB">
<feFlood flood-opacity="0" result="BackgroundImageFix"/>
<feColorMatrix in="SourceAlpha" type="matrix" values="0 0 0 0 0 0 0 0 0 0 0 0 0 0 0 0 0 0 127 0" result="hardAlpha"/>
<feOffset dy="6"/>
<feGaussianBlur stdDeviation="15"/>
<feComposite in2="hardAlpha" operator="out"/>
<feColorMatrix type="matrix" values="0 0 0 0 0.0470588 0 0 0 0 0.105882 0 0 0 0 0.164706 0 0 0 0.18 0"/>
<feBlend mode="normal" in2="BackgroundImageFix" result="effect1_dropShadow_504_20823"/>
<feBlend mode="normal" in="SourceGraphic" in2="effect1_dropShadow_504_20823" result="shape"/>
</filter>
</defs>
</svg>
