<svg width="24" height="24" viewBox="0 0 24 24" fill="none" xmlns="http://www.w3.org/2000/svg">
<g id="Iconsax/Linear/notification">
<path id="Union" fill-rule="evenodd" clip-rule="evenodd" d="M6.77069 8.90991C6.77069 6.56973 8.30819 4.58323 10.4265 3.9071C11.4551 3.62385 12.5403 3.61987 13.5705 3.89515C15.7069 4.56089 17.2707 6.5629 17.2707 8.90991V11.7999C17.2707 12.1951 17.3521 12.6506 17.4649 13.062C17.578 13.4743 17.739 13.9017 17.9311 14.2347L17.9309 14.2348L17.9382 14.2468L19.0876 16.1558L19.0879 16.1563C19.5016 16.8467 19.166 17.7396 18.4153 17.9878L18.413 17.9886C14.2578 19.3769 9.77515 19.377 5.61981 17.989C5.16304 17.8341 4.9002 17.5488 4.79028 17.252C4.68059 16.9558 4.69437 16.5705 4.94322 16.1568L4.94333 16.1566L6.09322 14.2468L6.09323 14.2468L6.0949 14.244C6.2952 13.908 6.4599 13.4775 6.57462 13.0643C6.68927 12.6513 6.77069 12.1953 6.77069 11.7999V8.90991ZM18.7707 8.90991C18.7707 6.03813 16.9559 3.57193 14.4158 2.60093C13.9488 1.7577 13.0502 1.18994 12.0205 1.18994C10.9922 1.18994 10.0946 1.75621 9.62711 2.59762C7.08221 3.56482 5.27069 6.0283 5.27069 8.90991V11.7999C5.27069 12.0145 5.22212 12.3286 5.12927 12.6631C5.0367 12.9965 4.91675 13.2905 4.80724 13.4746L4.80648 13.4759L3.65817 15.3831L3.65806 15.3832C3.19702 16.1495 3.10082 17.0091 3.38361 17.7728C3.66608 18.5357 4.29784 19.1252 5.14025 19.4103L5.14303 19.4113C6.23166 19.775 7.34125 20.05 8.46159 20.2363C8.64396 20.7865 8.95277 21.2922 9.3699 21.71L9.3703 21.7104C10.0448 22.3849 10.9931 22.8101 12.0206 22.8101C13.6751 22.8101 15.0864 21.7271 15.5816 20.2344C16.6975 20.0481 17.8028 19.7739 18.8872 19.4116C20.5555 18.8594 21.2794 16.8933 20.3738 15.384L20.3732 15.3831L19.2272 13.4796C19.1201 13.2923 19.0025 12.9973 18.9115 12.6653C18.8193 12.3293 18.7707 12.0148 18.7707 11.7999V8.90991ZM13.7793 20.458C12.6084 20.5537 11.4317 20.5539 10.2608 20.4587C10.3136 20.5253 10.3705 20.5892 10.4312 20.65C10.8367 21.0554 11.4082 21.3101 12.0206 21.3101C12.7297 21.3101 13.3659 20.9761 13.7793 20.458Z" fill="#003263"/>
</g>
</svg>
