<svg width="48" height="48" viewBox="0 0 48 48" fill="none" xmlns="http://www.w3.org/2000/svg">
<path d="M32.59 34C32.59 30.13 28.74 27 24 27C19.26 27 15.41 30.13 15.41 34M24 24C25.3261 24 26.5979 23.4732 27.5356 22.5355C28.4733 21.5979 29 20.3261 29 19C29 17.6739 28.4733 16.4021 27.5356 15.4645C26.5979 14.5268 25.3261 14 24 14C22.674 14 21.4022 14.5268 20.4645 15.4645C19.5268 16.4021 19 17.6739 19 19C19 20.3261 19.5268 21.5979 20.4645 22.5355C21.4022 23.4732 22.674 24 24 24Z" stroke="#EE7000" stroke-width="1.5" stroke-linecap="round" stroke-linejoin="round"/>
</svg>
