<svg width="16" height="16" viewBox="0 0 16 16" fill="none" xmlns="http://www.w3.org/2000/svg">
<g id="Iconsax/Linear/personalcard">
<path id="Vector" d="M9.33337 5.33333H12.6667M10 8H12.6667M11.3334 10.6667H12.6667M11.3334 14H4.66671C2.00004 14 1.33337 13.3333 1.33337 10.6667V5.33333C1.33337 2.66667 2.00004 2 4.66671 2H11.3334C14 2 14.6667 2.66667 14.6667 5.33333V10.6667C14.6667 13.3333 14 14 11.3334 14Z" stroke="#EE7000" stroke-width="0.9" stroke-linecap="round" stroke-linejoin="round"/>
<path id="Vector_2" d="M8.00004 10.8866C7.95517 10.4186 7.74795 9.98113 7.41432 9.64993C7.08068 9.31873 6.64166 9.11472 6.17337 9.07328C5.83642 9.03995 5.497 9.03995 5.16004 9.07328C4.69221 9.11597 4.25389 9.32039 3.9205 9.65134C3.58711 9.9823 3.37949 10.4191 3.33337 10.8866M5.66671 7.52661C5.98674 7.52661 6.29366 7.39948 6.51995 7.17319C6.74624 6.9469 6.87337 6.63998 6.87337 6.31995C6.87337 5.99992 6.74624 5.693 6.51995 5.46671C6.29366 5.24041 5.98674 5.11328 5.66671 5.11328C5.34668 5.11328 5.03976 5.24041 4.81347 5.46671C4.58717 5.693 4.46004 5.99992 4.46004 6.31995C4.46004 6.63998 4.58717 6.9469 4.81347 7.17319C5.03976 7.39948 5.34668 7.52661 5.66671 7.52661Z" stroke="#EE7000" stroke-width="0.9" stroke-linecap="round" stroke-linejoin="round"/>
</g>
</svg>
