<svg width="14" height="15" viewBox="0 0 14 15" fill="none" xmlns="http://www.w3.org/2000/svg">
<g id="Iconsax/Linear/smsedit">
<path id="Vector" d="M7 12.4584H4.08333C2.33333 12.4584 1.16666 11.5834 1.16666 9.54175V5.45841C1.16666 3.41675 2.33333 2.54175 4.08333 2.54175H9.91666C11.6667 2.54175 12.8333 3.41675 12.8333 5.45841V7.20841" stroke="#EE7000" stroke-width="0.9" stroke-miterlimit="10" stroke-linecap="round" stroke-linejoin="round"/>
<path id="Vector_2" d="M9.91667 5.75L8.09084 7.20833C7.49 7.68667 6.50417 7.68667 5.90334 7.20833L4.08334 5.75M11.2058 9.11583L9.14084 11.1808C9.05917 11.2625 8.98334 11.4142 8.96584 11.525L8.855 12.3125C8.81417 12.5983 9.0125 12.7967 9.29834 12.7558L10.0858 12.645C10.1967 12.6275 10.3542 12.5517 10.43 12.47L12.495 10.405C12.8508 10.0492 13.02 9.635 12.495 9.11C11.9758 8.59083 11.5617 8.76 11.2058 9.11583Z" stroke="#EE7000" stroke-width="0.9" stroke-miterlimit="10" stroke-linecap="round" stroke-linejoin="round"/>
<path id="Vector_3" d="M10.9083 9.41333C11.0833 10.0433 11.5733 10.5333 12.2033 10.7083" stroke="#EE7000" stroke-width="0.9" stroke-miterlimit="10" stroke-linecap="round" stroke-linejoin="round"/>
</g>
</svg>
