<svg width="24" height="24" viewBox="0 0 24 24" fill="none" xmlns="http://www.w3.org/2000/svg">
<path d="M12 2C6.47715 2 2 6.47715 2 12C2 17.5229 6.47715 22 12 22C17.5229 22 22 17.5229 22 12C21.998 6.47795 17.522 2.002 12 2ZM11 19.93C7.00015 19.4312 3.9985 16.0308 4 12C4.00335 11.3974 4.0738 10.7971 4.21 10.21L9 15V16C9.00325 17.1032 9.8968 17.9967 11 18V19.93ZM17.9 17.39C17.6396 16.5603 16.8695 15.9969 16 16H15V13C14.9984 12.4483 14.5517 12.0016 14 12H8V10H10C10.5517 9.9984 10.9984 9.55165 11 9V7H13C14.1032 6.99675 14.9967 6.1032 15 5V4.59C19.0892 6.23705 21.069 10.8872 19.4219 14.9764C19.0637 15.8658 18.5481 16.6834 17.9 17.39Z" fill="#0057A2"/>
</svg>
